PathFileType	4	(X/Y/Z)	pose_F01_0-84.trc
DataRate	CameraRate	NumFrames	NumMarkers	Units	OrigDataRate	OrigDataStartFrame	OrigNumFrames
30	30	8	21	m	30	52	84
Frame#	Time	CHip			RHip			RKnee			RAnkle			RBigToe			RSmallToe			RHeel			LHip			LKnee			LAnkle			LBigToe			LSmallToe			LHeel			Neck			Nose			RShoulder			RElbow			RWrist			LShoulder			LElbow			LWrist			
		X1	Y1	Z1	X2	Y2	Z2	X3	Y3	Z3	X4	Y4	Z4	X5	Y5	Z5	X6	Y6	Z6	X7	Y7	Z7	X8	Y8	Z8	X9	Y9	Z9	X10	Y10	Z10	X11	Y11	Z11	X12	Y12	Z12	X13	Y13	Z13	X14	Y14	Z14	X15	Y15	Z15	X16	Y16	Z16	X17	Y17	Z17	X18	Y18	Z18	X19	Y19	Z19	X20	Y20	Z20	X21	Y21	Z21	
52	1.7333333333333334	-0.16083473823396785	1.8409878549493572	-0.731732093694396	-0.17819303330739666	1.8377397872981185	-0.6680915476622781	-0.1962443327786987	1.715088367687965	-0.6315818911088524	-0.1838967974606987	1.605015489750059	-0.6236678999347328	-0.21341531087998186	1.569891772736515	-0.5853589867837474	-0.20919832163887117	1.576611728459543	-0.564344415661319	-0.17738810669473196	1.5987008401175806	-0.6383368805562634	-0.14352510342462974	1.8416851163171621	-0.8008894161045169	-0.1436804580728522	1.7095268930249607	-0.7837496182715394	-0.1530972022778043	1.5713195904518005	-0.7626917764860514	-0.1836802229604686	1.5320157039626328	-0.7363059809449697	-0.2802147419342179	1.4752093957496226	-1.191024493312673	-0.15006181204892158	1.5611418207056473	-0.756043977527049	-0.1534963696703929	1.9966326261665845	-0.7538970473254244	-0.17848616566516592	2.0607859965911772	-0.7339368918443472	-0.17639796572664754	1.9886074705056382	-0.6583585371629428	-0.19139898207018902	1.9082545399868875	-0.6213444887765367	-0.18888049260835674	1.9547383148293218	-0.6851539563429976	-0.12807103393773367	2.0023622900624223	-0.8488915785507868	-0.1279673456054752	1.9248503168747086	-0.8662100536949724	-0.17050135789509926	1.961004191603694	-0.7882229876666222
53	1.7666666666666666	-0.16312674816052333	1.8438420056844633	-0.7416050619743717	-0.17688619218724425	1.8419110537329308	-0.6744459807791563	-0.19488370732941387	1.71423577944998	-0.6540010212287558	-0.1786990891697097	1.5917681921260929	-0.6662311975124018	-0.21428573028629264	1.5591773745854827	-0.6270600754948417	-0.20550197868831027	1.564195259529606	-0.6108742492395338	-0.16747061138549688	1.5843593581563378	-0.6854462872309337	-0.14232536720333597	1.8446575784284733	-0.806682179847128	-0.14710026132580334	1.7093064263005209	-0.7843515649571333	-0.1530252738214019	1.570125361708831	-0.7629064690325962	-0.18579468883390798	1.5279270744448978	-0.7338038299956618	-0.2804474504323885	1.4745022533368008	-1.1910253438218439	-0.14635845049819002	1.5604168855469085	-0.7559013741634233	-0.15045186140021327	1.9983817663234436	-0.7646361676593322	-0.1756072076256999	2.0626829074276647	-0.7444409701473432	-0.17051011833940125	1.9924223860582366	-0.6682256734529841	-0.18460841589468585	1.9087689240672185	-0.636872646464152	-0.1881701655413405	1.953873465240137	-0.6933712700841479	-0.12466513339929296	2.003201223692471	-0.8593805269546221	-0.12845332645028937	1.925148375348158	-0.8805711872661603	-0.1662645018900144	1.957141129930411	-0.7926488870274775
54	1.8	-0.15953287882760533	1.841482856204796	-0.7491676739763419	-0.17424258173732088	1.8395864205505423	-0.6849633785812441	-0.18146685322037773	1.7032292827588145	-0.6831557952328275	-0.16989561957501778	1.5753897677101099	-0.6804635981529361	-0.19953595321290302	1.5413928542614124	-0.6469375098256928	-0.19746116290126597	1.546979320384885	-0.6242709076885105	-0.16553033357032973	1.5661888642484294	-0.692057210471429	-0.14056197231047626	1.8434172112640015	-0.812220344901868	-0.1431263657315678	1.708087500325844	-0.7922461759105076	-0.1533569718241055	1.5666087119477172	-0.7618292915567317	-0.2966569339335946	1.4753099932990479	-1.1614271169299064	-0.28027870415620443	1.4742747562039882	-1.1913782239961488	-0.1445344044464065	1.5574858525736306	-0.7570766719519509	-0.14662071468122942	1.9973043976096074	-0.772257282184343	-0.17129909136283625	2.061247642305923	-0.7599539162507988	-0.1700290986865024	1.9928583136323026	-0.6767233495764895	-0.18505283939051773	1.9098152183692314	-0.639957671236884	-0.1884364326959394	1.9568123317700319	-0.7055140187453421	-0.11845409286656382	2.001118047695502	-0.8695897949880087	-0.1247855512454511	1.9200806314085423	-0.8880116453268954	-0.16231995923707104	1.9558246813894993	-0.8000752651231715
55	1.8333333333333333	-0.15825952972400747	1.8403425712339485	-0.7545328577035609	-0.17513284651023694	1.8370489810709203	-0.6880487064683306	-0.18078876780831313	1.70185724755363	-0.6796600273488501	-0.16885727020647076	1.574151131847439	-0.677253706262183	-0.2017896322555384	1.5385223463967288	-0.6442969625845025	-0.19753350199908115	1.5468620611175623	-0.6240390743640131	-0.1657131523999706	1.564821190496264	-0.683531325700878	-0.13991924377934783	1.842231319899939	-0.8205857616252056	-0.1439934745274868	1.7066010869207189	-0.7950475418938879	-0.15421706487080114	1.5668293459919467	-0.7648656817844052	-0.2997335119137645	1.4739218408312098	-1.161171795433059	-0.2802273304340923	1.4743106799895305	-1.191430847399376	-0.14641508466625058	1.5554898079046702	-0.7548459461892905	-0.14308346641231645	1.996398054663248	-0.7799071532424269	-0.16696884433478448	2.0626181870747073	-0.7650340437683852	-0.16867527680057304	1.993051402725622	-0.6823414610021192	-0.18212883285883225	1.9074075084904758	-0.6388572603648379	-0.18546793787384377	1.9574537760300612	-0.7046098676325472	-0.11677950089623604	2.001379935859911	-0.8749254388779626	-0.1224646597858905	1.9200767757595838	-0.8903824414099997	-0.16093775607338529	1.9589372979236133	-0.8058671599341688
56	1.8666666666666667	-0.15912280728579611	1.8444442077621013	-0.7580472808799675	-0.176132462278328	1.8424023284511806	-0.6918695772912413	-0.18207729895801833	1.704614941211613	-0.6825983866195029	-0.17020797141907743	1.577896594927085	-0.67192258460644	-0.20128716230628596	1.5412400178385128	-0.6405284671401693	-0.19687524023959294	1.5483655489384667	-0.6204939438883968	-0.16494030534535178	1.5656273203578912	-0.6799403471759108	-0.1407481175721884	1.8462410454213558	-0.8241239573587049	-0.14416059132014192	1.7079491726863116	-0.7950001612943114	-0.1513109143764754	1.5680284342381337	-0.7638865178928731	-0.2966182806225657	1.4751676612090763	-1.1614583021553504	-0.28028028095179797	1.4752892915848264	-1.1924257856391893	-0.1465095477928551	1.5593274240532733	-0.7551363804053239	-0.14371911432341408	1.9989181848033817	-0.7832888793008539	-0.1676477671039236	2.062787027467554	-0.7679809307473435	-0.1694427497776204	1.9930817319794154	-0.6854410412733307	-0.18400597778496874	1.910234716503499	-0.6457036725898098	-0.18920855910117534	1.9554215076454007	-0.7083100679832075	-0.11746539822317881	2.0016854504605965	-0.8779840765390294	-0.12545175840935696	1.918789611650763	-0.8908146050693017	-0.1621082603235058	1.9563644932632165	-0.8112550852550104
57	1.9	-0.15892624935373942	1.8417258941037191	-0.7577658866390105	-0.17688039632807415	1.8411568216884109	-0.6947415456704166	-0.1840454076636785	1.7060249587246277	-0.6806941091572366	-0.17035908219064186	1.575274088398527	-0.6713430286855757	-0.2019873501563663	1.5412386419449446	-0.6358815825988827	-0.19806609879845294	1.5483023365696562	-0.6150311414325016	-0.16710601059740512	1.565483447531636	-0.6776322598981849	-0.14054354977869563	1.8436676791835906	-0.8238599054256149	-0.14405096198257328	1.7067215137903364	-0.7950523715741268	-0.15369904296788625	1.568556055728217	-0.7615965909756227	-0.2975600103830918	1.4742205074362973	-1.1645852432451993	-0.28022886833090555	1.4740162971934174	-1.1915551063333907	-0.14621842040778607	1.558667377692929	-0.7513327294965431	-0.14446548281951943	1.999067477059438	-0.7862993211225789	-0.16549777070832122	2.0629410721932104	-0.7702475168131128	-0.1701921605102576	1.9943858559346992	-0.6885610749113398	-0.18491584901223937	1.9103706747445734	-0.6488022403182612	-0.18222644496107615	1.9529246789107821	-0.7234066056170234	-0.11810270559391875	2.001904147658262	-0.8809912951664313	-0.12545542392517725	1.920076955970202	-0.8911945910132493	-0.16236786973341105	1.9564300080806603	-0.8114986702105362
58	1.9333333333333333	-0.1615255910640152	1.8390898610118984	-0.7549707616958298	-0.1782855187134332	1.8383453922571806	-0.6889616809023481	-0.18421570559927566	1.702669120022668	-0.6637042867429025	-0.17184888522536645	1.5795914033155989	-0.6579440661454858	-0.2008004631858066	1.543974533614002	-0.6247014138868774	-0.19920562946570677	1.549590394132871	-0.6011098400066467	-0.16741028824403814	1.5702519080998902	-0.66979649525306	-0.14104238947027464	1.838432903268601	-0.8230469930988249	-0.14342921060615785	1.7038779147435148	-0.7915354981041639	-0.15343132438630597	1.566032199978321	-0.7619393424270994	-0.29919186496766614	1.47449574500898	-1.1575546310380516	-0.28267384093667225	1.4752161541311433	-1.1886969119485309	-0.14612118470967733	1.557824162092744	-0.7514967775808725	-0.14440858631361395	1.999084534026736	-0.7864528400197829	-0.16765948542536946	2.063062272285385	-0.7681499656863529	-0.1688222778106359	1.9958491342412004	-0.6942313065109667	-0.1840877850609321	1.911540932197837	-0.6460480129391274	-0.1881681824932821	1.9531200666157136	-0.7136486497117149	-0.1157195669629378	2.0031972168551966	-0.8832931216202954	-0.12397350146398664	1.9189830772222776	-0.8963876816163773	-0.1588323501858801	1.9550776599541135	-0.8306200651630997
59	1.9666666666666666	-0.16076343536704057	1.839136340726936	-0.751736278157683	-0.17661353197930865	1.8382878721060008	-0.6825222696671169	-0.18702912187813145	1.7011738034180108	-0.6520761579507132	-0.17726649971006525	1.5816974179969907	-0.6400300411616616	-0.20514959307166467	1.5468506843628582	-0.6037454047934449	-0.2009562200993392	1.553441814362998	-0.58281672518954	-0.16788420578743213	1.5708194787404877	-0.6525429192550063	-0.13950449267628665	1.840948910245832	-0.8171787616715962	-0.14347749007130622	1.7039933216802827	-0.7912842425732104	-0.15553968336512092	1.5653290312489228	-0.7596987023854478	-0.18671932135882338	1.5280735279034618	-0.7370474275379834	-0.2804065235646489	1.4764004302287124	-1.1919823046438311	-0.1467474011566354	1.556694177601404	-0.7546881437966808	-0.14454190783291682	1.9989787176942662	-0.7862244730407726	-0.16998825748750207	2.0628549315082734	-0.765726317378892	-0.17030639232623743	1.9956213637157394	-0.6888747088191309	-0.1874467345213286	1.912537434113304	-0.6383533646354388	-0.19035180313795308	1.952741386735113	-0.7113803904075113	-0.11815786847047809	2.0018933819761546	-0.8809487583380393	-0.12333710935212935	1.9188675715804588	-0.8933286916385569	-0.1624835515795352	1.9538463009761073	-0.8112956946864752
